<?xml version="1.0" encoding="UTF-8"?>
<!DOCTYPE svg PUBLIC "-//W3C//DTD SVG 1.1//EN" "http://www.w3.org/Graphics/SVG/1.1/DTD/svg11.dtd">
<!-- Creator: CorelDRAW X7 -->
<svg xmlns="http://www.w3.org/2000/svg" xml:space="preserve" width="0.440283in" height="0.162449in" version="1.1" style="shape-rendering:geometricPrecision; text-rendering:geometricPrecision; image-rendering:optimizeQuality; fill-rule:evenodd; clip-rule:evenodd"
viewBox="0 0 5921 2185"
 xmlns:xlink="http://www.w3.org/1999/xlink">
 <defs>
  <style type="text/css">
   <![CDATA[
    .str0 {stroke:#C1A349;stroke-width:93.3935}
    .fil1 {fill:none}
    .fil0 {fill:#C1A349}
   ]]>
  </style>
 </defs>
 <g id="Layer_x0020_1">
  <metadata id="CorelCorpID_0Corel-Layer"/>
  <g id="_2390096226352">
   <path class="fil0" d="M891 1518c41,-125 70,-192 167,-192 -12,73 -21,61 -65,108 -38,41 -53,57 -102,84zm1136 -126c29,-87 195,-301 288,-293 42,4 40,18 72,44 -49,148 -230,195 -360,249zm-239 -695l0 0zm0 0c34,-104 117,-168 240,-167 -81,124 -110,112 -240,167zm-421 94c-312,-27 -249,-172 -377,-183 -12,14 -42,43 -42,52 -7,74 120,160 183,191 91,44 215,70 301,58 -35,96 -223,248 -254,334 -66,-11 -108,-47 -146,-50 -192,-17 -405,508 -252,522 135,11 326,-208 402,-303 196,158 441,169 682,135 64,52 50,79 161,89 299,26 549,-70 757,-249 46,-39 33,-41 94,-52 22,154 149,274 313,189 135,-70 204,-194 331,-263 16,42 15,115 18,157 8,131 0,59 49,148 175,16 237,-89 369,-176 35,-24 39,-21 78,-52 221,-174 201,-124 387,-92 -18,209 -105,230 -15,392 217,1 414,-283 567,-269 42,4 21,8 73,25 -10,86 -36,105 -153,188 -139,97 -167,35 -179,177 101,33 117,6 259,-82 329,-202 213,-590 -246,-334l-234 153 46 -315 -55 -57c-103,-13 -189,-39 -256,-28 -85,14 -148,58 -212,98 -126,78 -236,178 -362,247 7,-78 9,-123 -5,-185 -8,-34 -9,-47 -33,-76 -100,-119 -235,28 -308,95 -100,92 -157,159 -271,150 -120,-218 8,-414 -301,-153 -201,169 -365,263 -663,237l128 -53c468,-203 270,-475 126,-487 -27,-3 -121,36 -147,50 -55,31 -76,63 -116,109 -62,69 -158,175 -170,290 -205,-1 -384,66 -630,-92 37,-57 319,-415 386,-445l145 -52c666,-262 240,-643 -102,-245 -27,31 -34,40 -59,73 -74,94 -67,151 -267,134z"/>
   <path class="fil0" d="M4925 633c-10,106 -28,148 42,154 85,8 66,-111 74,-200 -53,-17 -109,-35 -116,46z"/>
  </g>
  <rect class="fil1 str0" x="47" y="47" width="5827" height="2091" rx="425" ry="448"/>
 </g>
</svg>
